<mxfile host="app.diagrams.net" agent="Mozilla/5.0 (X11; Ubuntu; Linux x86_64; rv:133.0) Gecko/20100101 Firefox/133.0" version="26.1.1">
  <diagram name="Страница — 1" id="a5tUvt1XvTLQ7L5p7zor">
    <mxGraphModel dx="1506" dy="965" grid="1" gridSize="10" guides="1" tooltips="1" connect="1" arrows="1" fold="1" page="1" pageScale="1" pageWidth="1100" pageHeight="850" math="0" shadow="0">
      <root>
        <mxCell id="0" />
        <mxCell id="1" parent="0" />
        <mxCell id="U9G6YFBfTQ0hr4K_XcKl-1" value="" style="rounded=0;whiteSpace=wrap;html=1;" parent="1" vertex="1">
          <mxGeometry x="90" y="270" width="20" height="320" as="geometry" />
        </mxCell>
        <mxCell id="U9G6YFBfTQ0hr4K_XcKl-2" value="" style="rounded=0;whiteSpace=wrap;html=1;" parent="1" vertex="1">
          <mxGeometry x="435" y="300" width="20" height="60" as="geometry" />
        </mxCell>
        <mxCell id="U9G6YFBfTQ0hr4K_XcKl-3" value="d: Слушатель" style="rounded=0;whiteSpace=wrap;html=1;" parent="1" vertex="1">
          <mxGeometry x="740" y="170" width="120" height="60" as="geometry" />
        </mxCell>
        <mxCell id="U9G6YFBfTQ0hr4K_XcKl-4" value=": Исторяи пройденных семинаров" style="rounded=0;whiteSpace=wrap;html=1;" parent="1" vertex="1">
          <mxGeometry x="580" y="170" width="120" height="60" as="geometry" />
        </mxCell>
        <mxCell id="U9G6YFBfTQ0hr4K_XcKl-5" value="c: Учебный курс" style="rounded=0;whiteSpace=wrap;html=1;" parent="1" vertex="1">
          <mxGeometry x="375" y="170" width="120" height="60" as="geometry" />
        </mxCell>
        <mxCell id="U9G6YFBfTQ0hr4K_XcKl-6" value="b: Семинар курса" style="rounded=0;whiteSpace=wrap;html=1;" parent="1" vertex="1">
          <mxGeometry x="200" y="170" width="120" height="60" as="geometry" />
        </mxCell>
        <mxCell id="U9G6YFBfTQ0hr4K_XcKl-8" value="" style="rounded=0;whiteSpace=wrap;html=1;" parent="1" vertex="1">
          <mxGeometry x="630" y="330" width="20" height="60" as="geometry" />
        </mxCell>
        <mxCell id="U9G6YFBfTQ0hr4K_XcKl-9" value="" style="rounded=0;whiteSpace=wrap;html=1;" parent="1" vertex="1">
          <mxGeometry x="790" y="370" width="20" height="150" as="geometry" />
        </mxCell>
        <mxCell id="U9G6YFBfTQ0hr4K_XcKl-10" value="" style="rounded=0;whiteSpace=wrap;html=1;" parent="1" vertex="1">
          <mxGeometry x="250" y="270" width="20" height="60" as="geometry" />
        </mxCell>
        <mxCell id="U9G6YFBfTQ0hr4K_XcKl-21" value="" style="endArrow=classic;html=1;rounded=0;" parent="1" edge="1">
          <mxGeometry relative="1" as="geometry">
            <mxPoint x="110" y="290" as="sourcePoint" />
            <mxPoint x="250" y="290" as="targetPoint" />
          </mxGeometry>
        </mxCell>
        <mxCell id="U9G6YFBfTQ0hr4K_XcKl-22" value="&lt;div&gt;записьНа&lt;/div&gt;&lt;div&gt;Семинар()&lt;/div&gt;" style="edgeLabel;resizable=0;html=1;;align=center;verticalAlign=middle;" parent="U9G6YFBfTQ0hr4K_XcKl-21" connectable="0" vertex="1">
          <mxGeometry relative="1" as="geometry">
            <mxPoint y="-20" as="offset" />
          </mxGeometry>
        </mxCell>
        <mxCell id="U9G6YFBfTQ0hr4K_XcKl-23" value="" style="endArrow=none;dashed=1;html=1;dashPattern=1 3;strokeWidth=2;rounded=0;entryX=0.5;entryY=1;entryDx=0;entryDy=0;" parent="1" source="U9G6YFBfTQ0hr4K_XcKl-10" target="U9G6YFBfTQ0hr4K_XcKl-6" edge="1">
          <mxGeometry width="50" height="50" relative="1" as="geometry">
            <mxPoint x="180" y="540" as="sourcePoint" />
            <mxPoint x="230" y="490" as="targetPoint" />
          </mxGeometry>
        </mxCell>
        <mxCell id="U9G6YFBfTQ0hr4K_XcKl-24" value="" style="endArrow=none;dashed=1;html=1;dashPattern=1 3;strokeWidth=2;rounded=0;entryX=0.5;entryY=1;entryDx=0;entryDy=0;exitX=0.5;exitY=0;exitDx=0;exitDy=0;" parent="1" source="U9G6YFBfTQ0hr4K_XcKl-9" target="U9G6YFBfTQ0hr4K_XcKl-3" edge="1">
          <mxGeometry width="50" height="50" relative="1" as="geometry">
            <mxPoint x="140" y="540" as="sourcePoint" />
            <mxPoint x="190" y="490" as="targetPoint" />
          </mxGeometry>
        </mxCell>
        <mxCell id="U9G6YFBfTQ0hr4K_XcKl-25" value="" style="endArrow=none;dashed=1;html=1;dashPattern=1 3;strokeWidth=2;rounded=0;exitX=0.5;exitY=0;exitDx=0;exitDy=0;" parent="1" source="U9G6YFBfTQ0hr4K_XcKl-8" edge="1">
          <mxGeometry width="50" height="50" relative="1" as="geometry">
            <mxPoint x="640" y="300" as="sourcePoint" />
            <mxPoint x="640" y="210" as="targetPoint" />
          </mxGeometry>
        </mxCell>
        <mxCell id="U9G6YFBfTQ0hr4K_XcKl-26" value="" style="endArrow=none;dashed=1;html=1;dashPattern=1 3;strokeWidth=2;rounded=0;exitX=0.5;exitY=0;exitDx=0;exitDy=0;" parent="1" source="U9G6YFBfTQ0hr4K_XcKl-2" edge="1">
          <mxGeometry width="50" height="50" relative="1" as="geometry">
            <mxPoint x="395" y="280" as="sourcePoint" />
            <mxPoint x="445" y="230" as="targetPoint" />
          </mxGeometry>
        </mxCell>
        <mxCell id="U9G6YFBfTQ0hr4K_XcKl-27" value="" style="endArrow=classic;html=1;rounded=0;" parent="1" edge="1">
          <mxGeometry relative="1" as="geometry">
            <mxPoint x="270" y="310" as="sourcePoint" />
            <mxPoint x="430" y="310" as="targetPoint" />
          </mxGeometry>
        </mxCell>
        <mxCell id="U9G6YFBfTQ0hr4K_XcKl-28" value="&lt;div&gt;проверка&lt;/div&gt;&lt;div&gt;Подготоленности&lt;/div&gt;&lt;div&gt;Студента()&lt;/div&gt;" style="edgeLabel;resizable=0;html=1;;align=center;verticalAlign=middle;" parent="U9G6YFBfTQ0hr4K_XcKl-27" connectable="0" vertex="1">
          <mxGeometry relative="1" as="geometry">
            <mxPoint x="-25" y="-30" as="offset" />
          </mxGeometry>
        </mxCell>
        <mxCell id="U9G6YFBfTQ0hr4K_XcKl-29" value="" style="endArrow=classic;html=1;rounded=0;" parent="1" edge="1">
          <mxGeometry relative="1" as="geometry">
            <mxPoint x="455" y="340" as="sourcePoint" />
            <mxPoint x="630" y="340" as="targetPoint" />
          </mxGeometry>
        </mxCell>
        <mxCell id="U9G6YFBfTQ0hr4K_XcKl-30" value="&lt;div&gt;запросИстории&lt;/div&gt;&lt;div&gt;ПройденныхСеминаров&lt;/div&gt;&lt;div&gt;(студент)&lt;/div&gt;" style="edgeLabel;resizable=0;html=1;;align=center;verticalAlign=middle;" parent="U9G6YFBfTQ0hr4K_XcKl-29" connectable="0" vertex="1">
          <mxGeometry relative="1" as="geometry">
            <mxPoint x="-3" y="-30" as="offset" />
          </mxGeometry>
        </mxCell>
        <mxCell id="U9G6YFBfTQ0hr4K_XcKl-32" value="" style="endArrow=classic;html=1;rounded=0;" parent="1" edge="1">
          <mxGeometry relative="1" as="geometry">
            <mxPoint x="650" y="380" as="sourcePoint" />
            <mxPoint x="790" y="380" as="targetPoint" />
          </mxGeometry>
        </mxCell>
        <mxCell id="U9G6YFBfTQ0hr4K_XcKl-33" value="передачаИстории()" style="edgeLabel;resizable=0;html=1;;align=center;verticalAlign=middle;" parent="U9G6YFBfTQ0hr4K_XcKl-32" connectable="0" vertex="1">
          <mxGeometry relative="1" as="geometry">
            <mxPoint y="-10" as="offset" />
          </mxGeometry>
        </mxCell>
        <mxCell id="U9G6YFBfTQ0hr4K_XcKl-34" value="" style="endArrow=none;html=1;rounded=0;" parent="1" edge="1">
          <mxGeometry width="50" height="50" relative="1" as="geometry">
            <mxPoint x="810" y="410" as="sourcePoint" />
            <mxPoint x="840" y="410" as="targetPoint" />
          </mxGeometry>
        </mxCell>
        <mxCell id="U9G6YFBfTQ0hr4K_XcKl-35" value="" style="endArrow=none;html=1;rounded=0;" parent="1" edge="1">
          <mxGeometry width="50" height="50" relative="1" as="geometry">
            <mxPoint x="840" y="460" as="sourcePoint" />
            <mxPoint x="840" y="410" as="targetPoint" />
          </mxGeometry>
        </mxCell>
        <mxCell id="U9G6YFBfTQ0hr4K_XcKl-37" value="&lt;div&gt;определение&lt;/div&gt;&lt;div&gt;Статуса&lt;/div&gt;&lt;div&gt;Подготовленности()&lt;/div&gt;" style="edgeLabel;html=1;align=center;verticalAlign=middle;resizable=0;points=[];" parent="U9G6YFBfTQ0hr4K_XcKl-35" vertex="1" connectable="0">
          <mxGeometry x="-0.08" y="1" relative="1" as="geometry">
            <mxPoint x="61" as="offset" />
          </mxGeometry>
        </mxCell>
        <mxCell id="U9G6YFBfTQ0hr4K_XcKl-36" value="" style="endArrow=classic;html=1;rounded=0;" parent="1" edge="1">
          <mxGeometry width="50" height="50" relative="1" as="geometry">
            <mxPoint x="840" y="460" as="sourcePoint" />
            <mxPoint x="810" y="460" as="targetPoint" />
          </mxGeometry>
        </mxCell>
        <mxCell id="U9G6YFBfTQ0hr4K_XcKl-38" value="" style="endArrow=none;dashed=1;html=1;dashPattern=1 3;strokeWidth=2;rounded=0;" parent="1" edge="1">
          <mxGeometry width="50" height="50" relative="1" as="geometry">
            <mxPoint x="800" y="560" as="sourcePoint" />
            <mxPoint x="800" y="520" as="targetPoint" />
          </mxGeometry>
        </mxCell>
        <mxCell id="U9G6YFBfTQ0hr4K_XcKl-39" value="" style="endArrow=none;html=1;rounded=0;strokeWidth=2;" parent="1" edge="1">
          <mxGeometry width="50" height="50" relative="1" as="geometry">
            <mxPoint x="785" y="580" as="sourcePoint" />
            <mxPoint x="815" y="550" as="targetPoint" />
          </mxGeometry>
        </mxCell>
        <mxCell id="U9G6YFBfTQ0hr4K_XcKl-40" value="" style="endArrow=none;html=1;rounded=0;strokeWidth=2;" parent="1" edge="1">
          <mxGeometry width="50" height="50" relative="1" as="geometry">
            <mxPoint x="815" y="580" as="sourcePoint" />
            <mxPoint x="785" y="550" as="targetPoint" />
          </mxGeometry>
        </mxCell>
        <mxCell id="U9G6YFBfTQ0hr4K_XcKl-41" value="" style="endArrow=none;dashed=1;html=1;dashPattern=1 3;strokeWidth=2;rounded=0;" parent="1" edge="1">
          <mxGeometry width="50" height="50" relative="1" as="geometry">
            <mxPoint x="260" y="590" as="sourcePoint" />
            <mxPoint x="259.5" y="330" as="targetPoint" />
          </mxGeometry>
        </mxCell>
        <mxCell id="U9G6YFBfTQ0hr4K_XcKl-42" value="" style="endArrow=none;dashed=1;html=1;dashPattern=1 3;strokeWidth=2;rounded=0;" parent="1" edge="1">
          <mxGeometry width="50" height="50" relative="1" as="geometry">
            <mxPoint x="445" y="590" as="sourcePoint" />
            <mxPoint x="444.5" y="360" as="targetPoint" />
          </mxGeometry>
        </mxCell>
        <mxCell id="U9G6YFBfTQ0hr4K_XcKl-43" value="" style="endArrow=none;dashed=1;html=1;dashPattern=1 3;strokeWidth=2;rounded=0;" parent="1" edge="1">
          <mxGeometry width="50" height="50" relative="1" as="geometry">
            <mxPoint x="640" y="590" as="sourcePoint" />
            <mxPoint x="639.5" y="390" as="targetPoint" />
          </mxGeometry>
        </mxCell>
        <mxCell id="U9G6YFBfTQ0hr4K_XcKl-45" value="" style="endArrow=classic;html=1;rounded=0;dashed=1;" parent="1" edge="1">
          <mxGeometry relative="1" as="geometry">
            <mxPoint x="790" y="510" as="sourcePoint" />
            <mxPoint x="110" y="510" as="targetPoint" />
          </mxGeometry>
        </mxCell>
        <mxCell id="U9G6YFBfTQ0hr4K_XcKl-46" value="сообщениеРезультатаЗаписи(статус)" style="edgeLabel;resizable=0;html=1;;align=center;verticalAlign=middle;" parent="U9G6YFBfTQ0hr4K_XcKl-45" connectable="0" vertex="1">
          <mxGeometry relative="1" as="geometry">
            <mxPoint y="-10" as="offset" />
          </mxGeometry>
        </mxCell>
        <mxCell id="U9G6YFBfTQ0hr4K_XcKl-48" value="a: Студент" style="shape=umlActor;verticalLabelPosition=bottom;verticalAlign=top;html=1;outlineConnect=0;" parent="1" vertex="1">
          <mxGeometry x="85" y="160" width="30" height="60" as="geometry" />
        </mxCell>
      </root>
    </mxGraphModel>
  </diagram>
</mxfile>
